<?xml version="1.0" standalone="no"?><!DOCTYPE svg PUBLIC "-//W3C//DTD SVG 1.1//EN" "http://www.w3.org/Graphics/SVG/1.1/DTD/svg11.dtd"><svg t="1644892793960" class="icon" viewBox="0 0 1024 1024" version="1.1" xmlns="http://www.w3.org/2000/svg" p-id="7376" xmlns:xlink="http://www.w3.org/1999/xlink" width="16" height="16"><defs><style type="text/css"></style></defs><path d="M544 64a480 480 0 1 1 0 960 480 480 0 0 1 0-960z" fill="#F63F3F" p-id="7377"></path><path d="M494.656 244.16c9.792-12.992 26.56-19.52 50.432-19.52 22.4 0 38.528 6.144 48.256 18.432 9.792 12.224 14.656 31.424 14.656 57.472 0 7.424-0.384 15.232-1.088 23.424l-42.304 316.672h-43.392l-40.128-312.256a315.52 315.52 0 0 1-1.088-24.576c0.064-26.752 4.928-46.656 14.656-59.648z m94.592 569.536A62.72 62.72 0 0 1 544 832a62.72 62.72 0 0 1-45.248-18.304 60.608 60.608 0 0 1-18.944-45.44c0-17.408 6.336-32.384 18.944-44.928a61.952 61.952 0 0 1 45.248-18.816c17.536 0 32.64 6.08 45.248 18.24a60.736 60.736 0 0 1 18.944 45.44 60.416 60.416 0 0 1-18.944 45.504z" fill="#FFFFFF" p-id="7378"></path></svg>
