<?xml version="1.0" standalone="no"?><!DOCTYPE svg PUBLIC "-//W3C//DTD SVG 1.1//EN" "http://www.w3.org/Graphics/SVG/1.1/DTD/svg11.dtd"><svg t="1644892756219" class="icon" viewBox="0 0 1024 1024" version="1.1" xmlns="http://www.w3.org/2000/svg" p-id="3805" xmlns:xlink="http://www.w3.org/1999/xlink" width="16" height="16"><defs><style type="text/css"></style></defs><path d="M375.222857 484.205714a38.4 38.4 0 0 0-55.442286 0 37.961143 37.961143 0 0 0 0 55.076572L434.688 649.508571c0 3.876571 4.022857 7.826286 7.899429 7.826286a43.300571 43.300571 0 0 0 59.465142 0l233.910858-232.228571a42.642286 42.642286 0 0 0 0-59.026286 43.300571 43.300571 0 0 0-59.465143 0L470.308571 570.806857 375.222857 484.205714z" fill="#18B693" p-id="3806"></path><path d="M894.537143 137.728L537.819429 3.876571C529.773714 0 517.851429 0 510.025143 0c-8.045714 0-19.894857 0-27.794286 3.949714L125.513143 137.801143a80.749714 80.749714 0 0 0-51.492572 74.752v433.005714c0 11.776 3.876571 19.675429 7.899429 31.451429 3.949714 7.899429 107.008 236.251429 404.333714 342.454857 3.949714 3.949714 15.798857 3.949714 23.698286 3.949714 8.045714 0 19.894857 0 27.794286-3.949714 297.325714-106.276571 400.384-334.555429 404.333714-342.381714 4.022857-11.849143 7.899429-19.748571 7.899429-31.524572v-433.005714c-3.876571-31.451429-23.771429-62.902857-55.515429-74.825143h0.073143z m-27.794286 507.830857s-91.136 204.653714-356.717714 299.154286c-265.581714-94.500571-356.717714-299.154286-356.717714-299.154286v-433.005714l356.717714-133.851429 356.717714 133.851429v433.005714z" fill="#18B693" p-id="3807"></path></svg>
