<?xml version="1.0" standalone="no"?><!DOCTYPE svg PUBLIC "-//W3C//DTD SVG 1.1//EN"
        "http://www.w3.org/Graphics/SVG/1.1/DTD/svg11.dtd">
<svg t="1644892710121" class="icon" viewBox="0 0 1024 1024" version="1.1" xmlns="http://www.w3.org/2000/svg" p-id="1273"
     xmlns:xlink="http://www.w3.org/1999/xlink" width="16" height="16">
    <defs>
        <style type="text/css"></style>
    </defs>
    <path d="M0 115.2m76.8 0l870.4 0q76.8 0 76.8 76.8l0 640q0 76.8-76.8 76.8l-870.4 0q-76.8 0-76.8-76.8l0-640q0-76.8 76.8-76.8Z"
          fill="#1989FA" opacity=".3" p-id="1274"></path>
    <path d="M563.2 396.8m25.6 0l281.6 0q25.6 0 25.6 25.6l0 0q0 25.6-25.6 25.6l-281.6 0q-25.6 0-25.6-25.6l0 0q0-25.6 25.6-25.6Z"
          fill="#1989FA" p-id="1275"></path>
    <path d="M563.2 512m25.6 0l281.6 0q25.6 0 25.6 25.6l0 0q0 25.6-25.6 25.6l-281.6 0q-25.6 0-25.6-25.6l0 0q0-25.6 25.6-25.6Z"
          fill="#1989FA" p-id="1276"></path>
    <path d="M563.2 640m25.6 0l140.8 0q25.6 0 25.6 25.6l0 0q0 25.6-25.6 25.6l-140.8 0q-25.6 0-25.6-25.6l0 0q0-25.6 25.6-25.6Z"
          fill="#1989FA" p-id="1277"></path>
    <path d="M294.4 422.4m-140.8 0a140.8 140.8 0 1 0 281.6 0 140.8 140.8 0 1 0-281.6 0Z" fill="#1989FA"
          p-id="1278"></path>
    <path d="M261.1584 611.5328l-73.0624 126.5536-88.6912-51.2 69.0432-119.5776a191.3088 191.3088 0 0 0 92.7104 44.224z m162.816-47.4496l66.9696 116.0064-88.6784 51.2-69.6832-120.6912a191.4496 191.4496 0 0 0 91.392-46.5152z"
          fill="#1989FA" p-id="1279"></path>
</svg>
